<svg xmlns="http://www.w3.org/2000/svg" width="1024" height="1024" viewBox="0 0 1024 1024">
  <defs>
    <linearGradient id="background" x1="0" y1="0" x2="1" y2="1">
      <stop offset="0" stop-color="#5B7CFA"/>
      <stop offset="1" stop-color="#7C3AED"/>
    </linearGradient>
    <filter id="shadow" x="-20%" y="-20%" width="140%" height="140%">
      <feDropShadow dx="0" dy="22" stdDeviation="28" flood-color="#24135F" flood-opacity=".32"/>
    </filter>
  </defs>
  <rect x="72" y="72" width="880" height="880" rx="210" fill="url(#background)"/>
  <g filter="url(#shadow)">
    <path d="M278 300h468a58 58 0 0 1 58 58v308a58 58 0 0 1-58 58H278a58 58 0 0 1-58-58V358a58 58 0 0 1 58-58Z" fill="#FFFFFF"/>
    <path d="M333 407h358M333 512h224M333 617h300" fill="none" stroke="#6757E8" stroke-width="50" stroke-linecap="round"/>
    <circle cx="711" cy="617" r="31" fill="#23C8A2"/>
  </g>
</svg>
